<svg width="227" height="310" viewBox="0 0 227 310" fill="none" xmlns="http://www.w3.org/2000/svg">
<g opacity="1">
<path d="M210.402 134.335C211.816 139.411 212.96 144.558 213.829 149.754C214.515 154.676 214.896 159.636 214.969 164.604V165.174C214.973 178.443 212.35 191.581 207.249 203.832C202.148 216.083 194.671 227.204 185.249 236.555C176.448 245.559 165.956 252.741 154.375 257.691C152.189 255.653 149.358 254.442 146.373 254.267H132.079C149.544 250.656 165.613 242.135 178.395 229.707C188.917 219.229 196.591 206.243 200.69 191.977L204.117 178.266C204.879 169.143 204.879 159.973 204.117 150.851C203.045 146.454 201.903 142.076 200.69 137.716L210.402 134.335ZM72.5894 257.706C61.008 252.755 50.5166 245.573 41.715 236.57C32.2964 227.214 24.8238 216.09 19.7279 203.836C14.6321 191.583 12.0136 178.443 12.0235 165.174V164.604C12.0982 159.255 12.4788 153.914 13.1635 148.608C14.1608 143.2 15.4982 137.859 17.168 132.619L26.8871 135.467C25.2053 140.277 24.056 145.257 23.4597 150.317C22.5721 155.034 21.9984 159.804 21.7425 164.597C21.9995 169.579 22.5731 174.539 23.4597 179.447C24.0577 184.322 25.2075 189.113 26.8871 193.728C31.3958 207.172 38.8133 219.458 48.6124 229.714C61.3936 242.142 77.4625 250.663 94.9275 254.274H80.6268C77.6021 254.326 74.7174 255.557 72.5894 257.706Z" fill="white"/>
<path d="M36.0362 151.47C26.8919 146.794 18.8888 140.166 12.5936 132.057C3.42977 119.611 -0.973372 104.299 0.180633 88.8917C1.33464 73.4842 7.96959 58.998 18.8853 48.0533C23.3326 43.6379 28.3278 39.8099 33.7489 36.6631C35.9311 39.4163 38.425 41.9079 41.1807 44.0881C35.5665 46.7033 30.5175 50.3887 26.3171 54.9373C21.1164 59.9619 17.01 66.0051 14.2549 72.6885C11.4999 79.3719 10.1557 86.5517 10.3064 93.7781C10.3823 105.425 13.9677 116.779 20.5954 126.361C27.7281 135.539 37.507 142.31 48.6125 145.76L53.187 147.476L61.7375 149.761C59.8679 155.674 58.9069 161.835 58.8874 168.036C58.7931 175.17 60.1655 182.247 62.9194 188.83C65.6734 195.413 69.7505 201.362 74.8981 206.307C81.3555 213.282 89.695 218.242 98.9108 220.587V230.867C87.2472 228.077 76.5703 222.151 68.0364 213.732V213.162C61.9769 207.325 57.178 200.309 53.9355 192.548C50.693 184.787 49.0754 176.445 49.1826 168.036C49.0743 164.23 49.2649 160.421 49.7526 156.645C45.0354 155.331 40.445 153.599 36.0362 151.47ZM128.082 220.58C137.298 218.235 145.637 213.275 152.095 206.3C162.277 196.153 168.032 182.396 168.106 168.028C168.086 161.828 167.125 155.667 165.255 149.754L173.257 147.469L177.832 145.753C189.163 142.462 199.162 135.674 206.397 126.361C213.02 116.787 216.605 105.444 216.687 93.8066C216.837 86.5802 215.493 79.4004 212.738 72.717C209.983 66.0336 205.876 59.9904 200.676 54.9658C196.475 50.4172 191.426 46.7318 185.812 44.1166C188.572 41.9279 191.068 39.4267 193.251 36.6631C198.672 39.8099 203.667 43.6379 208.115 48.0533C219.03 58.998 225.665 73.4842 226.819 88.8917C227.973 104.299 223.57 119.611 214.406 132.057C208.112 140.169 200.109 146.799 190.964 151.477C186.551 153.595 181.959 155.315 177.24 156.617C177.728 160.393 177.919 164.201 177.81 168.007C177.915 176.423 176.292 184.771 173.042 192.536C169.792 200.301 164.984 207.319 158.914 213.155V213.725C150.296 222.031 139.651 227.938 128.039 230.86L128.082 220.58ZM80.627 249.711H146.373C148.591 249.646 150.8 250.026 152.869 250.83C154.937 251.633 156.823 252.843 158.415 254.387C160.008 255.932 161.273 257.78 162.138 259.822C163.002 261.865 163.447 264.059 163.447 266.277C163.447 268.494 163.002 270.689 162.138 272.731C161.273 274.773 160.008 276.621 158.415 278.166C156.823 279.71 154.937 280.92 152.869 281.724C150.8 282.527 148.591 282.907 146.373 282.842H80.627C76.1872 282.909 71.8907 281.273 68.6207 278.272C65.674 274.97 64.0456 270.7 64.0456 266.277C64.0456 261.853 65.674 257.583 68.6207 254.281C71.8907 251.28 76.1872 249.645 80.627 249.711ZM146.373 259.421H80.627C79.275 259.351 77.9348 259.704 76.7939 260.433C75.6531 261.161 74.7687 262.227 74.2645 263.482C73.7604 264.738 73.6617 266.119 73.9823 267.433C74.3029 268.747 75.0267 269.929 76.0525 270.811C77.2375 272.118 78.8697 272.933 80.627 273.096H146.373C148.13 272.933 149.763 272.118 150.948 270.811C151.788 269.856 152.346 268.687 152.561 267.433C152.776 266.18 152.639 264.891 152.165 263.711C151.691 262.531 150.899 261.505 149.876 260.748C148.854 259.99 147.641 259.531 146.373 259.421ZM136.661 301.686C136.461 307.857 134.023 313.745 129.799 318.252C127.628 320.435 125.044 322.165 122.198 323.342C119.351 324.519 116.299 325.119 113.219 325.107C107.187 325.015 101.434 322.552 97.2078 318.252C92.9845 313.745 90.5458 307.857 90.346 301.686H100.635C100.537 303.364 100.792 305.044 101.382 306.618C101.972 308.192 102.885 309.626 104.062 310.827C105.184 312.144 106.59 313.188 108.175 313.881C109.76 314.574 111.483 314.898 113.211 314.828C115.031 314.958 116.856 314.665 118.542 313.97C120.229 313.276 121.731 312.2 122.93 310.827C124.108 309.626 125.021 308.192 125.611 306.618C126.201 305.044 126.456 303.364 126.358 301.686H136.661Z" fill="white"/>
<path d="M80.6284 273.132H146.374C148.586 273 150.801 273.339 152.872 274.124C154.944 274.91 156.825 276.126 158.392 277.691C159.958 279.257 161.175 281.136 161.962 283.206C162.749 285.275 163.087 287.488 162.955 289.698C163.022 294.133 161.385 298.426 158.381 301.693C155.11 304.766 150.858 306.587 146.374 306.833H80.6284C76.1192 306.7 71.8284 304.863 68.6221 301.693C65.6182 298.426 63.9812 294.133 64.0475 289.698C64.0844 285.281 65.7078 281.024 68.6221 277.702C71.8921 274.701 76.1886 273.066 80.6284 273.132ZM146.374 282.842H80.6284C78.8711 283.005 77.2389 283.821 76.0538 285.127C75.3109 285.628 74.7099 286.311 74.3092 287.112C73.9084 287.913 73.7215 288.804 73.7666 289.698C73.7699 290.666 73.975 291.623 74.3688 292.508C74.7625 293.393 75.3364 294.186 76.0538 294.838C77.2968 295.983 78.9381 296.598 80.6284 296.553H146.374C148.065 296.598 149.706 295.983 150.949 294.838C151.666 294.186 152.24 293.393 152.634 292.508C153.028 291.623 153.233 290.666 153.236 289.698C153.281 288.804 153.094 287.913 152.694 287.112C152.293 286.311 151.692 285.628 150.949 285.127C149.764 283.821 148.132 283.006 146.374 282.842ZM76.6239 51.513C87.7008 51.5808 98.3339 55.8715 106.351 63.5084C114.09 71.4567 118.401 82.12 118.357 93.2085C118.402 98.7235 117.358 104.193 115.284 109.304C113.209 114.415 110.146 119.067 106.269 122.993C102.392 126.92 97.7782 130.043 92.6911 132.184C87.604 134.326 82.144 135.444 76.6239 135.474C70.9872 135.525 65.3981 134.439 60.1919 132.28C54.9856 130.121 50.2696 126.933 46.3267 122.909C42.4491 119.005 39.39 114.367 37.3285 109.267C35.2669 104.167 34.2442 98.708 34.3204 93.2085C34.2771 82.12 38.5878 71.4567 46.3267 63.5084C54.5047 55.7641 65.3562 51.4678 76.6239 51.513ZM98.9193 70.9334C96.0937 67.8416 92.6481 65.379 88.8067 63.706C84.9653 62.033 80.8142 61.187 76.6239 61.2233C72.3412 61.1284 68.0874 61.9452 64.145 63.6194C60.2027 65.2936 56.6621 67.7868 53.7585 70.9334C49.247 75.3858 46.1741 81.0864 44.9359 87.3001C43.6977 93.5137 44.3511 99.9555 46.8117 105.795C49.2724 111.634 53.4275 116.603 58.7412 120.06C64.0549 123.518 70.2835 125.306 76.6239 125.194C84.9733 125.214 92.9904 121.927 98.9193 116.053C101.989 113.15 104.435 109.653 106.106 105.774C107.777 101.895 108.639 97.7163 108.639 93.4933C108.639 89.2703 107.777 85.0916 106.106 81.2127C104.435 77.3338 101.989 73.8361 98.9193 70.9334Z" fill="white"/>
<path d="M150.372 51.5132C155.876 51.4372 161.34 52.4589 166.445 54.5186C171.549 56.5783 176.191 59.6346 180.099 63.5086C184.118 67.3354 187.308 71.9461 189.472 77.0548C191.635 82.1636 192.725 87.6618 192.675 93.2087C192.506 104.365 187.995 115.018 180.098 122.908C172.201 130.798 161.538 135.305 150.372 135.474C144.851 135.444 139.391 134.326 134.304 132.185C129.217 130.043 124.603 126.92 120.726 122.994C116.85 119.067 113.786 114.415 111.712 109.304C109.638 104.193 108.593 98.7237 108.638 93.2087C108.595 82.1202 112.906 71.4569 120.644 63.5086C128.662 55.8717 139.295 51.581 150.372 51.5132ZM173.237 70.9336C170.333 67.787 166.793 65.2938 162.85 63.6196C158.908 61.9454 154.654 61.1286 150.372 61.2234C146.181 61.1872 142.03 62.0332 138.189 63.7062C134.347 65.3792 130.902 67.8418 128.076 70.9336C125.006 73.8363 122.561 77.334 120.889 81.2129C119.218 85.0918 118.356 89.2704 118.356 93.4935C118.356 97.7165 119.218 101.895 120.889 105.774C122.561 109.653 125.006 113.151 128.076 116.053C134.005 121.927 142.022 125.214 150.372 125.194C154.599 125.259 158.797 124.485 162.722 122.915C166.647 121.346 170.221 119.014 173.237 116.053C176.306 113.15 178.751 109.652 180.421 105.773C182.092 101.895 182.954 97.7162 182.954 93.4935C182.954 89.2707 182.092 85.0923 180.421 81.2135C178.751 77.3347 176.306 73.8368 173.237 70.9336Z" fill="white"/>
<path d="M103.493 123.478C103.934 127.1 105.099 130.595 106.92 133.758C109.207 137.182 111.494 140.613 113.212 143.468C115.499 140.621 117.786 137.182 120.073 133.758C121.894 130.595 123.059 127.1 123.501 123.478L133.79 124.048C132.762 129.209 131.031 134.206 128.645 138.898C125.398 144.602 121.578 149.962 117.245 154.894L113.24 159.464L109.813 154.894C105.479 149.962 101.659 144.602 98.4121 138.898C95.7539 134.32 93.9866 129.282 93.2034 124.048L103.493 123.478ZM21.1442 2.95499L113.212 35.5169L214.399 0.107422L212.105 8.65012C206.96 30.3557 197.241 42.9206 185.805 49.7761C174.628 56.288 162.118 60.1825 149.216 61.1663C140.842 61.8208 132.866 65.0093 126.351 70.307C123.491 73.2402 121.297 76.7542 119.917 80.6101C118.538 84.466 118.005 88.5735 118.356 92.6533H108.637C108.894 88.545 108.263 84.4296 106.788 80.5862C105.313 76.7428 103.027 73.2614 100.087 70.3782C93.8484 64.9885 86.0206 61.7792 77.7912 61.2375C64.8897 60.2537 52.3796 56.3592 41.2022 49.8473C29.8016 42.9918 20.0469 30.4269 14.9024 8.72131L12.5938 0.107422L21.1442 2.95499ZM112.072 45.8037L27.4573 15.527C30.7031 26.1106 37.3305 35.3401 46.3254 41.8029C56.3651 47.3347 67.4775 50.6462 78.9099 51.5131C89.1682 52.46 98.9155 56.4237 106.92 62.9034C109.492 65.1584 111.625 67.8688 113.212 70.8979C115.01 67.8503 117.333 65.144 120.073 62.9034C128.078 56.4237 137.825 52.46 148.083 51.5131C159.516 50.6462 170.628 47.3347 180.668 41.8029C189.663 35.3401 196.29 26.1106 199.536 15.527L114.929 45.8037H112.072Z" fill="white"/>
<path fill-rule="evenodd" clip-rule="evenodd" d="M150.379 76.6427C153.395 76.5206 156.377 77.3175 158.929 78.9279C158.359 78.9279 158.359 78.3583 157.789 78.3583C156.07 78.5015 154.467 79.2866 153.301 80.557C152.135 81.8275 151.491 83.4902 151.497 85.2139C151.51 86.877 152.177 88.4683 153.354 89.6443C154.532 90.8204 156.124 91.4868 157.789 91.4999C158.656 91.5497 159.523 91.4255 160.341 91.1344C161.159 90.8433 161.909 90.3914 162.549 89.8053C163.189 89.2193 163.705 88.511 164.066 87.7223C164.427 86.9337 164.625 86.0807 164.651 85.2139C164.651 84.6444 164.081 84.0748 164.081 83.4982C166.296 86.2507 167.505 89.6762 167.508 93.2084C167.508 97.6774 165.731 101.963 162.568 105.123C159.405 108.284 155.115 110.059 150.642 110.059C146.169 110.059 141.879 108.284 138.716 105.123C135.553 101.963 133.776 97.6774 133.776 93.2084C133.777 91.0314 134.208 88.876 135.042 86.8652C135.877 84.8543 137.101 83.0276 138.642 81.4892C140.184 79.9508 142.014 78.731 144.028 77.8995C146.042 77.0679 148.2 76.6408 150.379 76.6427ZM76.6235 76.6427C79.4683 76.517 82.2768 77.3191 84.6253 78.9279C84.0553 78.9279 84.0553 78.3583 83.4853 78.3583C81.766 78.5015 80.1637 79.2866 78.9977 80.557C77.8317 81.8275 77.1876 83.4902 77.1935 85.2139C77.2066 86.877 77.8736 88.4683 79.0508 89.6443C80.2279 90.8204 81.8206 91.4868 83.4853 91.4999C84.3518 91.5497 85.2196 91.4255 86.0372 91.1344C86.8548 90.8433 87.6057 90.3914 88.2455 89.8053C88.8853 89.2193 89.4009 88.511 89.7618 87.7223C90.1228 86.9337 90.3218 86.0807 90.347 85.2139C90.3834 84.9036 90.3511 84.5892 90.2527 84.2928C90.1542 83.9964 89.9918 83.7251 89.777 83.4982C91.9926 86.2507 93.2017 89.6762 93.2043 93.2084C93.2043 97.6774 91.4274 101.963 88.2644 105.123C85.1015 108.284 80.8116 110.059 76.3385 110.059C71.8654 110.059 67.5755 108.284 64.4125 105.123C61.2496 101.963 59.4727 97.6774 59.4727 93.2084C59.4909 90.9899 59.9511 88.7972 60.8266 86.7582C61.7021 84.7193 62.9752 82.875 64.5717 81.333C66.1683 79.7909 68.0562 78.582 70.1254 77.7767C72.1946 76.9714 74.4036 76.5859 76.6235 76.6427Z" fill="white"/>
<path d="M89.1992 227.436V251.996H98.9183V227.436H89.1992ZM128.075 227.436V251.996H137.794V227.436H128.075Z" fill="white"/>
</g>
</svg>